<svg width="9" height="17" viewBox="0 0 9 17" fill="none" xmlns="http://www.w3.org/2000/svg">
<path d="M4.5 17C2.01841 17 0 14.6172 0 11.6875V4.25C0 3.85831 0.268835 3.54171 0.599963 3.54171C0.931201 3.54171 1.20004 3.85831 1.20004 4.25V11.6875C1.20004 13.8352 2.68022 15.5833 4.5 15.5833C6.31978 15.5833 7.79996 13.8352 7.79996 11.6875V3.89579C7.79996 2.52876 6.858 1.41671 5.70004 1.41671C4.54197 1.41671 3.6 2.52876 3.6 3.89579V10.9792C3.6 11.5649 4.00375 12.0417 4.5 12.0417C4.99625 12.0417 5.4 11.5649 5.4 10.9792V4.25C5.4 3.85831 5.66884 3.54171 5.99996 3.54171C6.3312 3.54171 6.60004 3.85831 6.60004 4.25V10.9792C6.60004 12.3462 5.65796 13.4583 4.5 13.4583C3.34204 13.4583 2.39996 12.3462 2.39996 10.9792V3.89579C2.39996 1.74822 3.88015 0 5.70004 0C7.51981 0 9 1.74822 9 3.89579V11.6875C9 14.6172 6.98159 17 4.5 17Z" fill="#96A7AF"/>
</svg>
