<svg width="20" height="20" viewBox="0 0 20 20" fill="none" xmlns="http://www.w3.org/2000/svg">
<path fill-rule="evenodd" clip-rule="evenodd" d="M7.00001 5C7.00001 3.34315 8.34312 2 10 2C11.6568 2 13 3.34315 13 5V8H7.00001V5ZM15 5V8H17C17.4767 8 17.8871 8.3365 17.9806 8.8039L19.9806 18.8039C20.0393 19.0977 19.9633 19.4023 19.7733 19.634C19.5834 19.8657 19.2996 20 19 20H1.00001C0.700416 20 0.416606 19.8657 0.226666 19.634C0.0367258 19.4023 -0.0393241 19.0977 0.0194259 18.8039L2.01943 8.8039C2.11292 8.3365 2.52333 8 3.00001 8H5.00001V5C5.00001 2.23858 7.23859 0 10 0C12.7614 0 15 2.23858 15 5Z" fill="#96A7AF"/>
</svg>
