<svg width="13" height="15" viewBox="0 0 13 15" fill="none" xmlns="http://www.w3.org/2000/svg">
<path fill-rule="evenodd" clip-rule="evenodd" d="M10.6213 4.99406C9.93621 4.99406 9.3185 4.68387 8.88699 4.18924L4.61853 6.76362C4.68489 6.99385 4.7206 7.2381 4.7206 7.49103C4.7206 7.74383 4.68493 7.98797 4.61862 8.2181L8.88721 10.7926C9.31871 10.2981 9.93632 9.988 10.6213 9.988C11.923 9.988 12.9815 11.1079 12.9815 12.4851C12.9815 13.8621 11.923 14.9821 10.6213 14.9821C9.31955 14.9821 8.26103 13.8621 8.26103 12.4851C8.26103 12.281 8.28427 12.0826 8.3281 11.8927L4.00206 9.28355C3.57696 9.71941 2.99776 9.988 2.36025 9.988C1.05863 9.988 0 8.86816 0 7.49103C0 6.11389 1.05863 4.99406 2.36025 4.99406C2.99765 4.99406 3.57677 5.26256 4.00185 5.69829L8.32802 3.08906C8.28424 2.8992 8.26103 2.70091 8.26103 2.49697C8.26103 1.11995 9.31955 0 10.6213 0C11.923 0 12.9815 1.11995 12.9815 2.49697C12.9815 3.8741 11.923 4.99406 10.6213 4.99406Z" fill="#96A7AF"/>
</svg>
