<svg width="20" height="19" viewBox="0 0 20 19" fill="none" xmlns="http://www.w3.org/2000/svg">
<path d="M9.08464 0.597007C9.43203 -0.199002 10.568 -0.199002 10.9153 0.597007L13.0167 5.41287C13.1613 5.74417 13.4756 5.97115 13.8374 6.00541L19.0957 6.50334C19.9648 6.58564 20.3158 7.65924 19.6613 8.23347L15.7018 11.7078C15.4295 11.9468 15.3093 12.314 15.3884 12.6665L16.5368 17.7902C16.7265 18.6371 15.8076 19.3005 15.0557 18.8595L10.5072 16.1908C10.1943 16.0073 9.80565 16.0073 9.49279 16.1908L4.94427 18.8595C4.19244 19.3005 3.27346 18.6371 3.46328 17.7902L4.61163 12.6665C4.69063 12.314 4.57055 11.9468 4.29817 11.7078L0.338658 8.23347C-0.315796 7.65924 0.0352198 6.58564 0.90435 6.50334L6.1626 6.00541C6.52433 5.97115 6.83871 5.74417 6.98328 5.41287L9.08464 0.597007Z" fill="#96A7AF"/>
</svg>
