<svg width="19" height="19" viewBox="0 0 19 19" fill="none" xmlns="http://www.w3.org/2000/svg">
<path fill-rule="evenodd" clip-rule="evenodd" d="M1.23666 1.26577C0 2.53156 0 4.56879 0 8.64326V16.9034C0 17.7489 0 18.1717 0.109208 18.3979C0.343583 18.8835 0.892947 19.1164 1.3941 18.9428C1.62761 18.8618 1.91969 18.5629 2.50382 17.965H2.50383L2.50385 17.9649C2.97752 17.4801 3.21436 17.2377 3.47533 17.0419C4.02225 16.6317 4.65765 16.3623 5.32778 16.2566C5.64756 16.2061 5.9825 16.2061 6.65236 16.2061H11.0833C14.5535 16.2061 16.2885 16.2061 17.4564 15.2251C17.6701 15.0455 17.8661 14.8449 18.0416 14.6261C19 13.4308 19 11.6549 19 8.10306C19 4.55124 19 2.77533 18.0416 1.58002C17.8661 1.3612 17.6701 1.16055 17.4564 0.980967C16.2885 0 14.5535 0 11.0833 0H8.44444C4.46369 0 2.47333 0 1.23666 1.26577ZM4.75 9.72367C5.62445 9.72367 6.33333 8.99807 6.33333 8.10306C6.33333 7.20805 5.62445 6.48245 4.75 6.48245C3.87555 6.48245 3.16667 7.20805 3.16667 8.10306C3.16667 8.99807 3.87555 9.72367 4.75 9.72367ZM11.0833 8.10306C11.0833 8.99807 10.3744 9.72367 9.5 9.72367C8.62558 9.72367 7.91667 8.99807 7.91667 8.10306C7.91667 7.20805 8.62558 6.48245 9.5 6.48245C10.3744 6.48245 11.0833 7.20805 11.0833 8.10306ZM14.25 9.72367C15.1244 9.72367 15.8333 8.99807 15.8333 8.10306C15.8333 7.20805 15.1244 6.48245 14.25 6.48245C13.3756 6.48245 12.6667 7.20805 12.6667 8.10306C12.6667 8.99807 13.3756 9.72367 14.25 9.72367Z" fill="#96A7AF"/>
</svg>
