<svg width="14" height="16" viewBox="0 0 14 16" fill="none" xmlns="http://www.w3.org/2000/svg">
<path fill-rule="evenodd" clip-rule="evenodd" d="M9.05882 0.800001C9.05882 0.358177 8.69013 8.05064e-07 8.23529 8.05064e-07C7.78046 8.05064e-07 7.41176 0.358177 7.41176 0.800001V4C7.41176 5.49107 8.4616 6.74392 9.88235 7.0992V15.2C9.88235 15.6418 10.251 16 10.7059 16C11.1607 16 11.5294 15.6418 11.5294 15.2V7.0992C12.9502 6.74392 14 5.49107 14 4V0.800001C14 0.358177 13.6313 8.05064e-07 13.1765 8.05064e-07C12.7216 8.05064e-07 12.3529 0.358177 12.3529 0.800001V4C12.3529 4.59222 12.0217 5.1093 11.5294 5.38595V0.800001C11.5294 0.358177 11.1607 8.05064e-07 10.7059 8.05064e-07C10.251 8.05064e-07 9.88235 0.358177 9.88235 0.800001V5.38595C9.39005 5.1093 9.05882 4.59222 9.05882 4V0.800001ZM1.24724 0.114009L0.823529 0.800001C1.24724 0.114009 1.24775 0.114313 1.2483 0.114625L1.24945 0.115305L1.25205 0.116833L1.25837 0.120593L1.27544 0.130945C1.28875 0.139121 1.30589 0.149857 1.32658 0.163265C1.36798 0.190081 1.42367 0.227569 1.49155 0.276553C1.62731 0.374521 1.81198 0.518553 2.02882 0.715153C2.46281 1.10864 3.02477 1.71192 3.58071 2.576C4.6969 4.31089 5.76471 7.05944 5.76471 11.2C5.76471 11.6418 5.39601 12 4.94118 12H1.64706V15.2C1.64706 15.6418 1.27835 16 0.823529 16C0.368711 16 0 15.6418 0 15.2V11.2V0.800001C0 0.511785 0.159592 0.245849 0.417776 0.103841C0.675961 -0.0381672 0.992822 -0.0342792 1.24724 0.114009Z" fill="#3ED598"/>
</svg>
