<svg width="17" height="18" viewBox="0 0 17 18" fill="none" xmlns="http://www.w3.org/2000/svg">
<path d="M2.13594 13.9498C1.74542 14.3403 1.74542 14.9735 2.13594 15.364C2.52647 15.7545 3.15963 15.7545 3.55016 15.364L2.13594 13.9498ZM14.8639 4.05027C15.2544 3.65974 15.2544 3.02658 14.8639 2.63605C14.4733 2.24553 13.8402 2.24553 13.4497 2.63605L14.8639 4.05027ZM1.84305 14.6569C1.84305 15.2092 2.29077 15.6569 2.84305 15.6569C3.39533 15.6569 3.84305 15.2092 3.84305 14.6569L1.84305 14.6569ZM3.84305 9.70712C3.84305 9.15484 3.39533 8.70712 2.84305 8.70712C2.29077 8.70712 1.84305 9.15484 1.84305 9.70712H3.84305ZM2.84305 13.6569C2.29077 13.6569 1.84305 14.1046 1.84305 14.6569C1.84305 15.2092 2.29077 15.6569 2.84305 15.6569L2.84305 13.6569ZM7.7928 15.6569C8.34508 15.6569 8.7928 15.2092 8.7928 14.6569C8.7928 14.1046 8.34508 13.6569 7.7928 13.6569V15.6569ZM14.1568 4.34316C14.709 4.34316 15.1568 3.89544 15.1568 3.34316C15.1568 2.79088 14.709 2.34316 14.1568 2.34316V4.34316ZM9.20701 2.34316C8.65473 2.34316 8.20701 2.79088 8.20701 3.34316C8.20701 3.89544 8.65473 4.34316 9.20701 4.34316V2.34316ZM15.1568 3.34316C15.1568 2.79088 14.709 2.34316 14.1568 2.34316C13.6045 2.34316 13.1568 2.79088 13.1568 3.34316H15.1568ZM13.1568 8.29291C13.1568 8.84519 13.6045 9.29291 14.1568 9.29291C14.709 9.29291 15.1568 8.84519 15.1568 8.29291H13.1568ZM3.55016 15.364L14.8639 4.05027L13.4497 2.63605L2.13594 13.9498L3.55016 15.364ZM3.84305 14.6569V9.70712H1.84305L1.84305 14.6569L3.84305 14.6569ZM2.84305 15.6569L7.7928 15.6569V13.6569H2.84305L2.84305 15.6569ZM14.1568 2.34316H9.20701V4.34316H14.1568V2.34316ZM13.1568 3.34316V8.29291H15.1568V3.34316H13.1568Z" fill="#3ED598"/>
</svg>
