<svg width="50" height="53" viewBox="0 0 50 53" fill="none" xmlns="http://www.w3.org/2000/svg">
<path fill-rule="evenodd" clip-rule="evenodd" d="M0 16C0 8.45753 0 4.68629 2.34315 2.34315C4.68629 0 8.45753 0 16 0H34C41.5425 0 45.3137 0 47.6569 2.34315C50 4.68629 50 8.45753 50 16V31.7617C50 39.3042 50 43.0754 47.6569 45.4186C45.3137 47.7617 41.5422 47.7617 33.9991 47.7617C31.5458 47.7617 29.6459 47.7617 29.1172 47.7617C27.2477 47.7617 24.9698 53 24.9698 53C24.9698 53 22.425 47.7617 20.8944 47.7617C20.4524 47.7617 18.5237 47.7617 16.0037 47.7617C8.45875 47.7617 4.68629 47.7617 2.34315 45.4186C0 43.0754 0 39.3042 0 31.7617L0 16Z" fill="white"/>
</svg>
