<svg width="18" height="17" viewBox="0 0 18 17" fill="none" xmlns="http://www.w3.org/2000/svg">
<path d="M8.17618 0.534164C8.48883 -0.178055 9.51117 -0.178055 9.82381 0.534164L11.715 4.8431C11.8451 5.13952 12.1281 5.34261 12.4537 5.37326L17.1861 5.81878C17.9683 5.89241 18.2842 6.85301 17.6952 7.36679L14.1316 10.4754C13.8865 10.6893 13.7784 11.0178 13.8495 11.3332L14.8831 15.9175C15.0539 16.6753 14.2268 17.2689 13.5502 16.8742L9.45649 14.4865C9.17491 14.3223 8.82509 14.3223 8.54351 14.4865L4.44984 16.8742C3.7732 17.2689 2.94611 16.6753 3.11695 15.9175L4.15047 11.3332C4.22156 11.0178 4.11349 10.6893 3.86835 10.4754L0.304792 7.36679C-0.284217 6.85301 0.0316979 5.89241 0.813915 5.81878L5.54634 5.37326C5.8719 5.34261 6.15484 5.13952 6.28495 4.8431L8.17618 0.534164Z" fill="white"/>
</svg>
